<?xml version="1.0" encoding="utf-8"?>
<svg version="1.1" xmlns:xlink="http://www.w3.org/1999/xlink" width="312px" height="348px" xmlns="http://www.w3.org/2000/svg">
  <g transform="matrix(1 0 0 1 -819 -403 )">
    <path d="M 819 403  L 1131 403  L 1131 751  L 819 751  L 819 403  " fill-rule="nonzero" fill="#cccccc" stroke="none" />
    <path d="M 841 425  L 1109 425  L 1109 729  L 841 729  L 841 425  " fill-rule="nonzero" fill="#ffffff" stroke="none" />
    <path d="M 1004.64 502  C 991.536 502  981.24 491.704  981.24 478.6  C 981.24 465.496  991.536 455.2  1004.64 455.2  C 1017.744 455.2  1028.04 465.496  1028.04 478.6  C 1028.04 491.704  1017.744 502  1004.64 502  " fill-rule="nonzero" fill="#cccccc" stroke="none" />
    <path d="M 849 721  L 849 562.6  L 912 490.6  L 1000.2 548.2  L 1050.6 533.8  L 1101 548.2  L 1101 721  L 849 721  " fill-rule="nonzero" fill="#169bd5" stroke="none" />
  </g>
</svg>