<?xml version="1.0" encoding="utf-8"?>
<svg version="1.1" xmlns:xlink="http://www.w3.org/1999/xlink" width="317px" height="87px" xmlns="http://www.w3.org/2000/svg">
  <g transform="matrix(1 0 0 1 -113 -1984 )">
    <path d="M 113 1984  L 430 1984  L 430 2071  L 113 2071  L 113 1984  " fill-rule="nonzero" fill="#cccccc" stroke="none" />
    <path d="M 119 1990  L 424 1990  L 424 2065  L 119 2065  L 119 1990  " fill-rule="nonzero" fill="#ffffff" stroke="none" />
    <path d="M 284.365 2010.1  C 280.711 2010.1  277.84 2007.229  277.84 2003.575  C 277.84 1999.921  280.711 1997.05  284.365 1997.05  C 288.019 1997.05  290.89 1999.921  290.89 2003.575  C 290.89 2007.229  288.019 2010.1  284.365 2010.1  " fill-rule="nonzero" fill="#cccccc" stroke="none" />
    <path d="M 121 2063  L 121 2023.95  L 196.25 2006.2  L 301.6 2051.30851735016  L 361.8 2016.85  L 422 2051.30851735016  L 422 2063  L 121 2063  " fill-rule="nonzero" fill="#169bd5" stroke="none" />
  </g>
</svg>