<?xml version="1.0" encoding="utf-8"?>
<svg version="1.1" xmlns:xlink="http://www.w3.org/1999/xlink" width="20px" height="20px" viewBox="501 444  20 20" xmlns="http://www.w3.org/2000/svg">
  <path d="M 511 444  C 516.6 444  521 448.4  521 454  C 521 459.6  516.6 464  511 464  C 505.4 464  501 459.6  501 454  C 501 448.4  505.4 444  511 444  Z " fill-rule="nonzero" fill="#ffffff" stroke="none" />
  <path d="M 511 444.5  C 516.32 444.5  520.5 448.68  520.5 454  C 520.5 459.32  516.32 463.5  511 463.5  C 505.68 463.5  501.5 459.32  501.5 454  C 501.5 448.68  505.68 444.5  511 444.5  Z " stroke-width="1" stroke="#797979" fill="none" />
  <path d="M 511 459  C 508.2 459  506 456.8  506 454  C 506 451.2  508.2 449  511 449  C 513.8 449  516 451.2  516 454  C 516 456.8  513.8 459  511 459  " fill-rule="nonzero" fill="#797979" stroke="none" />
</svg>