<?xml version="1.0" encoding="utf-8"?>
<svg version="1.1" xmlns:xlink="http://www.w3.org/1999/xlink" width="20px" height="20px" viewBox="472 444  20 20" xmlns="http://www.w3.org/2000/svg">
  <path d="M 482 444  C 487.6 444  492 448.4  492 454  C 492 459.6  487.6 464  482 464  C 476.4 464  472 459.6  472 454  C 472 448.4  476.4 444  482 444  Z " fill-rule="nonzero" fill="#ffffff" stroke="none" />
  <path d="M 482 444.5  C 487.32 444.5  491.5 448.68  491.5 454  C 491.5 459.32  487.32 463.5  482 463.5  C 476.68 463.5  472.5 459.32  472.5 454  C 472.5 448.68  476.68 444.5  482 444.5  Z " stroke-width="1" stroke="#797979" fill="none" />
  <path d="M 482 459  C 479.2 459  477 456.8  477 454  C 477 451.2  479.2 449  482 449  C 484.8 449  487 451.2  487 454  C 487 456.8  484.8 459  482 459  " fill-rule="nonzero" fill="#797979" stroke="none" />
</svg>