<?xml version="1.0" encoding="utf-8"?>
<svg version="1.1" xmlns:xlink="http://www.w3.org/1999/xlink" width="20px" height="20px" viewBox="488 442  20 20" xmlns="http://www.w3.org/2000/svg">
  <path d="M 498 442  C 503.6 442  508 446.4  508 452  C 508 457.6  503.6 462  498 462  C 492.4 462  488 457.6  488 452  C 488 446.4  492.4 442  498 442  Z " fill-rule="nonzero" fill="#ffffff" stroke="none" />
  <path d="M 498 442.5  C 503.32 442.5  507.5 446.68  507.5 452  C 507.5 457.32  503.32 461.5  498 461.5  C 492.68 461.5  488.5 457.32  488.5 452  C 488.5 446.68  492.68 442.5  498 442.5  Z " stroke-width="1" stroke="#797979" fill="none" />
  <path d="M 498 457  C 495.2 457  493 454.8  493 452  C 493 449.2  495.2 447  498 447  C 500.8 447  503 449.2  503 452  C 503 454.8  500.8 457  498 457  " fill-rule="nonzero" fill="#797979" stroke="none" />
</svg>