<?xml version="1.0" encoding="utf-8"?>
<svg version="1.1" xmlns:xlink="http://www.w3.org/1999/xlink" width="20px" height="20px" viewBox="513 442  20 20" xmlns="http://www.w3.org/2000/svg">
  <path d="M 523 442  C 528.6 442  533 446.4  533 452  C 533 457.6  528.6 462  523 462  C 517.4 462  513 457.6  513 452  C 513 446.4  517.4 442  523 442  Z " fill-rule="nonzero" fill="#ffffff" stroke="none" />
  <path d="M 523 442.5  C 528.32 442.5  532.5 446.68  532.5 452  C 532.5 457.32  528.32 461.5  523 461.5  C 517.68 461.5  513.5 457.32  513.5 452  C 513.5 446.68  517.68 442.5  523 442.5  Z " stroke-width="1" stroke="#797979" fill="none" />
  <path d="M 523 457  C 520.2 457  518 454.8  518 452  C 518 449.2  520.2 447  523 447  C 525.8 447  528 449.2  528 452  C 528 454.8  525.8 457  523 457  " fill-rule="nonzero" fill="#797979" stroke="none" />
</svg>