<?xml version="1.0" encoding="utf-8"?>
<svg version="1.1" xmlns:xlink="http://www.w3.org/1999/xlink" width="20px" height="20px" viewBox="476 444  20 20" xmlns="http://www.w3.org/2000/svg">
  <path d="M 486 444  C 491.6 444  496 448.4  496 454  C 496 459.6  491.6 464  486 464  C 480.4 464  476 459.6  476 454  C 476 448.4  480.4 444  486 444  Z " fill-rule="nonzero" fill="#ffffff" stroke="none" />
  <path d="M 486 444.5  C 491.32 444.5  495.5 448.68  495.5 454  C 495.5 459.32  491.32 463.5  486 463.5  C 480.68 463.5  476.5 459.32  476.5 454  C 476.5 448.68  480.68 444.5  486 444.5  Z " stroke-width="1" stroke="#797979" fill="none" />
  <path d="M 486 459  C 483.2 459  481 456.8  481 454  C 481 451.2  483.2 449  486 449  C 488.8 449  491 451.2  491 454  C 491 456.8  488.8 459  486 459  " fill-rule="nonzero" fill="#797979" stroke="none" />
</svg>