<?xml version="1.0" encoding="utf-8"?>
<svg version="1.1" xmlns:xlink="http://www.w3.org/1999/xlink" width="20px" height="20px" viewBox="526 444  20 20" xmlns="http://www.w3.org/2000/svg">
  <path d="M 536 444  C 541.6 444  546 448.4  546 454  C 546 459.6  541.6 464  536 464  C 530.4 464  526 459.6  526 454  C 526 448.4  530.4 444  536 444  Z " fill-rule="nonzero" fill="#ffffff" stroke="none" />
  <path d="M 536 444.5  C 541.32 444.5  545.5 448.68  545.5 454  C 545.5 459.32  541.32 463.5  536 463.5  C 530.68 463.5  526.5 459.32  526.5 454  C 526.5 448.68  530.68 444.5  536 444.5  Z " stroke-width="1" stroke="#797979" fill="none" />
  <path d="M 536 459  C 533.2 459  531 456.8  531 454  C 531 451.2  533.2 449  536 449  C 538.8 449  541 451.2  541 454  C 541 456.8  538.8 459  536 459  " fill-rule="nonzero" fill="#797979" stroke="none" />
</svg>