<?xml version="1.0" encoding="utf-8"?>
<svg version="1.1" xmlns:xlink="http://www.w3.org/1999/xlink" width="20px" height="20px" viewBox="522 444  20 20" xmlns="http://www.w3.org/2000/svg">
  <path d="M 532 444  C 537.6 444  542 448.4  542 454  C 542 459.6  537.6 464  532 464  C 526.4 464  522 459.6  522 454  C 522 448.4  526.4 444  532 444  Z " fill-rule="nonzero" fill="#ffffff" stroke="none" />
  <path d="M 532 444.5  C 537.32 444.5  541.5 448.68  541.5 454  C 541.5 459.32  537.32 463.5  532 463.5  C 526.68 463.5  522.5 459.32  522.5 454  C 522.5 448.68  526.68 444.5  532 444.5  Z " stroke-width="1" stroke="#797979" fill="none" />
  <path d="M 532 459  C 529.2 459  527 456.8  527 454  C 527 451.2  529.2 449  532 449  C 534.8 449  537 451.2  537 454  C 537 456.8  534.8 459  532 459  " fill-rule="nonzero" fill="#797979" stroke="none" />
</svg>