<?xml version="1.0" encoding="utf-8"?>
<svg version="1.1" xmlns:xlink="http://www.w3.org/1999/xlink" width="16px" height="28px" xmlns="http://www.w3.org/2000/svg">
  <g transform="matrix(1 0 0 1 -559 -1104 )">
    <path d="M 15.7250859106529 13.3547094188377  C 15.9083619702176 13.5417501670007  16 13.7568470273881  16 14  C 16 14.2431529726119  15.9083619702176 14.4582498329993  15.7250859106529 14.6452905811623  L 2.91408934707904 27.7194388777555  C 2.73081328751432 27.9064796259185  2.52004581901489 28  2.28178694158076 28  C 2.04352806414662 28  1.83276059564719 27.9064796259185  1.64948453608247 27.7194388777555  L 0.274914089347079 26.3166332665331  C 0.0916380297823597 26.1295925183701  0 25.9144956579826  0 25.6713426853707  C 0 25.4281897127589  0.0916380297823597 25.2130928523714  0.274914089347079 25.0260521042084  L 11.0790378006873 14  L 0.274914089347079 2.97394789579158  C 0.0916380297823597 2.78690714762859  0 2.57181028724115  0 2.32865731462926  C 0 2.08550434201736  0.0916380297823597 1.87040748162992  0.274914089347079 1.68336673346693  L 1.64948453608247 0.280561122244489  C 1.83276059564719 0.0935203740814954  2.04352806414662 0  2.28178694158076 0  C 2.52004581901489 0  2.73081328751432 0.0935203740814954  2.91408934707904 0.280561122244489  L 15.7250859106529 13.3547094188377  Z " fill-rule="nonzero" fill="#d7d7d7" stroke="none" transform="matrix(1 0 0 1 559 1104 )" />
  </g>
</svg>