<?xml version="1.0" encoding="utf-8"?>
<svg version="1.1" xmlns:xlink="http://www.w3.org/1999/xlink" width="32px" height="15px" xmlns="http://www.w3.org/2000/svg">
  <g transform="matrix(1 0 0 1 -1032 -2033 )">
    <path d="M 31.4501718213058 7.15430861723447  C 31.8167239404353 7.25450901803607  32 7.36973947895792  32 7.5  C 32 7.63026052104208  31.8167239404353 7.74549098196393  31.4501718213058 7.84569138276553  L 5.82817869415808 14.8496993987976  C 5.46162657502864 14.9498997995992  5.04009163802978 15  4.56357388316151 15  C 4.08705612829324 15  3.66552119129439 14.9498997995992  3.29896907216495 14.8496993987976  L 0.549828178694158 14.0981963927856  C 0.183276059564719 13.997995991984  0 13.8827655310621  0 13.75250501002  C 0 13.622244488978  0.183276059564719 13.5070140280561  0.549828178694158 13.4068136272545  L 22.1580756013746 7.5  L 0.549828178694158 1.59318637274549  C 0.183276059564719 1.49298597194389  0 1.37775551102204  0 1.24749498997996  C 0 1.11723446893787  0.183276059564719 1.00200400801603  0.549828178694158 0.901803607214428  L 3.29896907216495 0.150300601202405  C 3.66552119129439 0.0501002004008011  4.08705612829324 0  4.56357388316151 0  C 5.04009163802978 0  5.46162657502864 0.0501002004008011  5.82817869415808 0.150300601202405  L 31.4501718213058 7.15430861723447  Z " fill-rule="nonzero" fill="#d7d7d7" stroke="none" transform="matrix(1 0 0 1 1032 2033 )" />
  </g>
</svg>